<?xml version="1.0" encoding="utf-8"?>
<!-- Generator: Adobe Illustrator 16.2.1, SVG Export Plug-In . SVG Version: 6.00 Build 0)  -->
<!DOCTYPE svg PUBLIC "-//W3C//DTD SVG 1.1//EN" "http://www.w3.org/Graphics/SVG/1.1/DTD/svg11.dtd">
<svg version="1.1" id="Ebene_1" xmlns="http://www.w3.org/2000/svg" xmlns:xlink="http://www.w3.org/1999/xlink" x="0px" y="0px"
	 width="232px" height="96px" viewBox="0 0 232 96" enable-background="new 0 0 232 96" xml:space="preserve">
<g>
	<path fill="#FFFFFF" d="M35.115,1.904c-6.183,0-11.194,5.012-11.194,11.194c0,2.318,0.704,4.47,1.908,6.257
		c0.006,0.006,7.147,10.206,8.901,12.708c0.213,0.306,0.558,0.306,0.771,0c1.752-2.502,8.895-12.702,8.899-12.708
		c1.206-1.787,1.91-3.938,1.91-6.257C46.309,6.916,41.298,1.904,35.115,1.904z M38.28,16.217l-3.01,2.993
		c-0.086,0.086-0.229,0.086-0.316,0l-3.011-2.993c-0.808-0.804-1.309-1.916-1.309-3.145c0-2.458,2.006-4.452,4.478-4.452
		c2.472,0,4.478,1.994,4.478,4.452C39.591,14.301,39.09,15.413,38.28,16.217z"/>
	<g>
		<path fill="#FDC300" d="M1.804,22.453c-0.371,0-0.5,0.244-0.287,0.55l24.26,34.646c0.213,0.303,0.213,0.795,0,1.1L4.933,88.518
			c-0.424,0.607-1.372,1.1-2.115,1.1H2.371c-0.743,0-1.344,0.604-1.344,1.344v1.791c0,0.742,0.601,1.344,1.344,1.344h15.226
			c0.74,0,1.686-0.492,2.113-1.1l15.024-21.459c0.213-0.303,0.558-0.303,0.769,0l15.024,21.459c0.425,0.607,1.373,1.1,2.115,1.1
			c3.323,0,11.9,0,15.223,0c0.741,0,1.344-0.602,1.344-1.344v-1.791c0-0.74-0.603-1.344-1.344-1.344h-0.449
			c-0.743,0-1.688-0.492-2.113-1.1L19.428,23.003c-0.211-0.306-0.687-0.55-1.056-0.55H1.804z"/>
		<path fill="#FDC300" d="M80.974,4.54H64.404c-0.369,0-0.843,0.247-1.054,0.552L39.981,38.464c-0.214,0.304-0.214,0.796,0,1.102
			l8.185,11.689c0.213,0.303,0.558,0.303,0.77,0L81.259,5.092C81.472,4.787,81.345,4.54,80.974,4.54z"/>
	</g>
	<path fill="#FFFFFF" d="M105.494,71.327V48.391c0-2.812-1.557-5.268-5.448-5.268c-2.216,0-3.894,0.718-5.391,2.215v25.989h-7.307
		V48.212c0-3.111-2.092-5.148-6.047-5.148c-2.154,0-3.352,0.297-4.788,0.898v27.365h-7.307V40.786
		c3.233-1.555,6.708-2.334,12.095-2.334c5.21,0,8.206,1.497,10.06,3.532c2.158-1.976,5.45-3.532,10.359-3.532
		c7.666,0,11.082,4.792,11.082,9.879v22.996H105.494z"/>
	<path fill="#FFFFFF" d="M128.108,84.174h-7.726l5.272-12.873l-10.659-32.277h7.783l5.571,20.9c0.656,2.512,0.656,4.611,0.656,4.611
		h0.119c0,0,0.181-2.1,0.898-4.611l5.99-20.9h6.825L128.108,84.174z"/>
	<path fill="#FFFFFF" d="M212.346,71.301l-6.048-11.738h-0.121l-6.168,11.738h-7.424l10-16.709l-8.982-15.568h7.666l5.448,10.537
		h0.119l5.69-10.537h6.884l-9.161,15.089l10.122,17.188H212.346z"/>
	<path fill="#FFFFFF" d="M226.96,33.455c-2.214,0-4.013-1.617-4.013-3.594c0-2.035,1.799-3.651,4.013-3.651
		c2.279,0,4.013,1.617,4.013,3.651C230.973,31.838,229.24,33.455,226.96,33.455z M223.309,71.301V39.024h7.307v32.277H223.309z"/>
	<g>
		<path fill="#FFFFFF" d="M178.273,71.899c-8.805,0-13.179-3.594-13.179-9.824c0-8.506,8.206-10.965,18.032-11.92v-1.738
			c0-4.192-2.637-5.329-6.409-5.329c-3.115,0-8.681,0.605-8.681,0.605l-0.027-4.657c0,0,4.932-0.623,10.025-0.623
			c6.646,0,11.919,2.816,11.919,11.142v21.754C189.954,71.309,183.305,71.899,178.273,71.899 M183.126,53.629
			c-6.889,0.84-11.144,2.336-11.144,8.205c0,4.191,2.52,5.99,6.766,5.99c1.683,0,4.378-0.271,4.378-0.271V53.629z"/>
	</g>
	<path fill="#FFFFFF" d="M162.099,66.629l-0.205,0.041c-0.459,0.072-0.693,0.08-0.931,0.078c-2.516-0.029-3.535-1.676-3.535-4.191
		V43.695h6.678l-0.004-4.671h-6.674V29.86l-7.305,2.037v7.127h-3.165l-1.522,4.671h4.688v19.221c0,4.49,2.515,8.742,8.862,8.742
		c1.797,0,4.19-0.561,5.116-1.064C163.146,69.475,162.432,67.616,162.099,66.629z"/>
</g>
</svg>
